<svg xmlns="http://www.w3.org/2000/svg" xmlns:xlink="http://www.w3.org/1999/xlink" width="968.465" height="1527.882" viewBox="0 0 968.465 1527.882">
  <defs>
    <filter id="Tracé_94" x="0" y="0" width="968.465" height="1527.882" filterUnits="userSpaceOnUse">
      <feOffset dy="3" input="SourceAlpha"/>
      <feGaussianBlur stdDeviation="3" result="blur"/>
      <feFlood flood-opacity="0.161"/>
      <feComposite operator="in" in2="blur"/>
      <feComposite in="SourceGraphic"/>
    </filter>
  </defs>
  <g transform="matrix(1, 0, 0, 1, 0, 0)" filter="url(#Tracé_94)">
    <g id="Tracé_94-2" data-name="Tracé 94" transform="translate(-231.92 -100.05)" fill="#ebebeb" stroke-linecap="round" stroke-linejoin="round" opacity="0.64">
      <path d="M 287.5206298828125 1613.556030273438 L 302.6888122558594 1547.365600585938 L 302.7572021484375 1547.066772460938 L 302.7027893066406 1546.764770507813 L 242.4488220214844 1212.026489257813 L 279.6853942871094 1024.872802734375 L 279.7106018066406 1024.745361328125 L 279.7138061523438 1024.615844726563 L 289.3369140625 621.3843383789063 L 354.5599975585938 549.1467895507813 L 354.99560546875 548.6643676757813 L 354.94140625 548.0164184570313 L 344.8428649902344 427.3846740722656 L 380.4085998535156 404.2823791503906 L 381.3059997558594 403.6994018554688 L 381.0469970703125 402.6611938476563 L 354.0125122070313 294.3264465332031 L 346.1880798339844 208.7158660888672 L 497.4097900390625 195.4989929199219 L 497.5621948242188 195.485595703125 L 497.7090148925781 195.4417877197266 L 573.1058959960938 172.8973083496094 L 693.3372192382813 201.5731964111328 L 695.4177856445313 202.0695953369141 L 695.1755981445313 199.9443817138672 L 690.5045776367188 158.9699859619141 L 690.42138671875 158.2405853271484 L 689.7943725585938 157.8585815429688 L 642.3446655273438 128.9605407714844 L 748.2172241210938 124.0521926879883 L 748.6915893554688 124.0301895141602 L 749.0670166015625 123.7391891479492 L 761.5492553710938 114.0608673095703 L 766.8034057617188 117.9083862304688 L 768.1785888671875 118.9153900146484 L 769.0026245117188 117.4233856201172 L 773.620361328125 109.0624008178711 L 776.5734252929688 114.0353927612305 L 777.2448120117188 115.1659927368164 L 778.45361328125 114.6485900878906 L 790.628173828125 109.4363174438477 L 827.9010009765625 124.8427886962891 L 828.5654296875 125.1173858642578 L 829.1956176757813 124.7715911865234 L 839.6597290039063 119.0290298461914 L 1023.612854003906 131.701416015625 L 1189.165771484375 176.6557464599609 L 1119.04541015625 306.0859375 L 1023.792175292969 409.1033935546875 L 1023.419799804688 409.5061950683594 L 1023.395202636719 410.05419921875 L 1012.5703125 649.8117065429688 L 967.9456176757813 764.674560546875 L 967.9205932617188 764.739013671875 L 967.901611328125 764.8053588867188 L 819.9549560546875 1282.16845703125 L 798.10302734375 1297.284545898438 L 797.7760009765625 1297.5107421875 L 797.60400390625 1297.869384765625 L 702.4485473632813 1496.188354492188 L 587.132568359375 1547.095336914063 L 430.1286010742188 1560.760375976563 L 429.927001953125 1560.777954101563 L 429.7373962402344 1560.84814453125 L 287.5206298828125 1613.556030273438 Z" stroke="none"/>
      <path d="M 289.6028747558594 1611.184692382813 L 429.2160034179688 1559.441772460938 C 429.4678039550781 1559.348388671875 429.7309875488281 1559.289428710938 429.9984130859375 1559.265991210938 L 586.7547607421875 1545.62255859375 L 701.3357543945313 1495.039916992188 L 796.2515869140625 1297.220336914063 C 796.4769897460938 1296.750610351563 796.8209838867188 1296.347412109375 797.2495727539063 1296.051025390625 L 818.6602783203125 1281.240112304688 L 966.4594116210938 764.3930053710938 C 966.4848022460938 764.3043823242188 966.5139770507813 764.2171630859375 966.5474243164063 764.1314086914063 L 1011.082824707031 649.4983520507813 L 1021.896606445313 409.9863891601563 C 1021.928588867188 409.2787780761719 1022.210021972656 408.6051940917969 1022.690795898438 408.0851745605469 L 1117.816040039063 305.2061767578125 L 1186.944458007813 177.60693359375 L 1023.362854003906 133.1878967285156 L 839.9955444335938 120.5558700561523 L 829.9174194335938 126.0865859985352 C 829.1204833984375 126.5239868164063 828.1682739257813 126.576416015625 827.3280029296875 126.2289886474609 L 790.6383056640625 111.0635528564453 L 779.0440063476563 116.0273895263672 C 777.6607666015625 116.6197204589844 776.05224609375 116.0954360961914 775.2838134765625 114.8013916015625 L 773.66748046875 112.0795364379883 L 770.3156127929688 118.1485900878906 C 769.8988037109375 118.903190612793 769.1776123046875 119.4421920776367 768.3356323242188 119.6277923583984 C 767.4939575195313 119.813362121582 766.6128540039063 119.6280136108398 765.9171752929688 119.1185913085938 L 761.5750122070313 115.9388656616211 L 749.9860229492188 124.9245910644531 C 749.4976196289063 125.3033905029297 748.9041748046875 125.5219879150391 748.2868041992188 125.5505905151367 L 647.3154907226563 130.2317199707031 L 690.5745849609375 156.5775909423828 C 691.3657836914063 157.0593872070313 691.8900146484375 157.8795928955078 691.9948120117188 158.7999877929688 L 696.6658325195313 199.7743835449219 C 696.776611328125 200.7461853027344 696.4067993164063 201.7107849121094 695.6748046875 202.3595886230469 C 694.9427490234375 203.0081939697266 693.9405517578125 203.2591247558594 692.9891967773438 203.0323944091797 L 573.149169921875 174.4498291015625 L 498.1386108398438 196.8787841796875 C 497.943603515625 196.9371948242188 497.7431945800781 196.9753875732422 497.5404052734375 196.9931945800781 L 347.8189392089844 210.0789337158203 L 355.4957885742188 294.0749816894531 L 382.5024108886719 402.2980041503906 C 382.8124084472656 403.5403747558594 382.2995910644531 404.8425903320313 381.2257995605469 405.5401916503906 L 346.4125061035156 428.1537170410156 L 356.4361877441406 547.8914184570313 C 356.5054016113281 548.718017578125 356.2291870117188 549.536376953125 355.6731872558594 550.1519775390625 L 290.8232421875 621.976318359375 L 281.2134094238281 1024.651611328125 C 281.2091979980469 1024.82421875 281.1902160644531 1024.995971679688 281.1566162109375 1025.165405273438 L 243.9754943847656 1212.040161132813 L 304.17919921875 1546.499145507813 C 304.2507934570313 1546.897338867188 304.2412109375 1547.30615234375 304.1507873535156 1547.700805664063 L 289.6028747558594 1611.184692382813 M 285.4382019042969 1615.927612304688 L 301.2265930175781 1547.030639648438 L 240.9221954345703 1212.01220703125 L 278.2142028808594 1024.579956054688 L 287.8506164550781 620.7921752929688 L 353.4465942382813 548.1416015625 L 343.273193359375 426.6156005859375 L 379.5916137695313 403.0243835449219 L 352.5292053222656 294.5777893066406 L 344.5571899414063 207.3525848388672 L 497.2792053222656 194.0045928955078 L 573.0618286132813 171.3447875976563 L 693.6851806640625 200.1141967773438 L 689.0142211914063 159.1397857666016 L 637.3735961914063 127.6893920898438 L 748.1478271484375 122.5537872314453 L 761.5233764648438 112.1827926635742 L 767.6895751953125 116.6981887817383 L 773.5731811523438 106.0451889038086 L 777.8632202148438 113.2695922851563 L 790.6177978515625 107.8089904785156 L 828.4739990234375 123.4565887451172 L 839.3237915039063 117.5023880004883 L 1023.863586425781 130.2151947021484 L 1191.386962890625 175.70458984375 L 1120.2744140625 306.9664001464844 L 1024.8935546875 410.1217956542969 L 1014.0576171875 650.1256103515625 L 969.3438110351563 765.2177734375 L 821.2495727539063 1283.096801757813 L 798.9564208984375 1298.518188476563 L 703.5612182617188 1497.336791992188 L 587.5103759765625 1548.568237304688 L 430.2586059570313 1562.254760742188 L 285.4382019042969 1615.927612304688 Z" stroke="none" fill="#fff"/>
    </g>
  </g>
</svg>
