<svg xmlns="http://www.w3.org/2000/svg" width="23.506" height="23.506" viewBox="0 0 23.506 23.506">
  <g id="Groupe_921" data-name="Groupe 921" transform="translate(-745.364 -456)">
    <path id="_ionicons_svg_logo-facebook" d="M86.208,64H65.3A1.3,1.3,0,0,0,64,65.3V86.208a1.3,1.3,0,0,0,1.3,1.3H75.753V78.2h-2.81V74.774h2.81V72.239a4.466,4.466,0,0,1,4.818-4.689c1.3,0,2.693.1,3.018.141v3.171H81.428c-1.475,0-1.757.7-1.757,1.726v2.185h3.514L82.725,78.2H79.671v9.3h6.538a1.3,1.3,0,0,0,1.3-1.3V65.3A1.3,1.3,0,0,0,86.208,64Z" transform="translate(681.364 392)" fill="#fff"/>
  </g>
</svg>
