<svg xmlns="http://www.w3.org/2000/svg" xmlns:xlink="http://www.w3.org/1999/xlink" width="265" height="148.856" viewBox="0 0 265 148.856">
  <defs>
    <linearGradient id="linear-gradient" x1="0.009" y1="-0.077" x2="0.948" y2="1.027" gradientUnits="objectBoundingBox">
      <stop offset="0" stop-color="#fff"/>
      <stop offset="1" stop-color="#e6e6e6"/>
    </linearGradient>
  </defs>
  <g id="Groupe_10703" data-name="Groupe 10703" transform="translate(-8.356 70.671)">
    <g id="Groupe_1" data-name="Groupe 1" transform="translate(92.856 -70.671)">
      <path id="Tracé_1" data-name="Tracé 1" d="M270.742,577.938A30.938,30.938,0,0,0,239.8,547H210.938A30.938,30.938,0,0,0,180,577.938V606.8a30.938,30.938,0,0,0,30.938,30.938H239.8A30.938,30.938,0,0,0,270.742,606.8ZM245.7,572.267c1.7,1.63,1.585,4.888.008,9.054-2.263-.4-4.683-.738-7.224-.992.886-2.571.9-4.537-.142-5.538-1.3-1.251-4.04-.788-7.528.993C237.59,571.471,243.253,569.92,245.7,572.267Zm-12.532,28.04-.255.284-.189.209q-.956,1.053-1.962,2.1-2.055,2.142-4.134,4.07c-11.124,10.329-22.156,15.677-25.854,12.131-2.2-2.107-1.362-6.938,1.747-12.933q.623-1.2,1.366-2.462a22.476,22.476,0,0,0-1.02,2.511c-.818,2.472-.806,4.361.21,5.336,1.914,1.836,6.916-.02,12.853-4.322a72,72,0,0,0,7.238-6.069q.277-.263.554-.531l.136-.133q1.1-1.065,2.192-2.205a77.093,77.093,0,0,0,8.431-10.366,67.448,67.448,0,0,1,6.96,1.594A85.345,85.345,0,0,1,233.168,600.307Zm19.19-3.945a45.393,45.393,0,0,1-8.5,2.5c4.247-1.248,6.829-2.914,6.851-4.768,0-.057,0-.114-.006-.171-.151-2.059-3.453-3.948-8.678-5.323a61.021,61.021,0,0,0-7.076-1.378,95.656,95.656,0,0,0-11.923-.859c-1.627-.019-3.222,0-4.773.053l-.532.02-.793.034c-12.413.593-21.719,3.434-21.761,6.963,0,.039,0,.078,0,.117-1.5-1.179-2.317-2.45-2.3-3.769a3.185,3.185,0,0,1,.127-.851c1.422-4.948,14.632-8.773,31.327-9.134l.24,0,.618.017a108.4,108.4,0,0,1,13.078,1.134c2.529.383,4.891.849,7.044,1.387,8.039,2.007,13.164,5,13.125,8.286C258.4,592.775,256.166,594.748,252.358,596.363Z" transform="translate(-180 -547)" fill="url(#linear-gradient)"/>
    </g>
    <g id="Groupe_2" data-name="Groupe 2" transform="translate(8.356 33.184)">
      <text id="ALGERIA_VIRTUAL_TOUR" data-name="ALGERIA VIRTUAL TOUR" transform="translate(0 24)" fill="#fff" font-size="25" font-family="SegoeUI, Segoe UI"><tspan x="0" y="0">ALGERIA VIRTUAL TOUR</tspan></text>
      <text id="By_VIRTUAL_ART_PRODUCTION" data-name="By VIRTUAL ART PRODUCTION" transform="translate(58 42)" fill="#fff" font-size="11" font-family="SegoeUI, Segoe UI"><tspan x="0" y="0">By VIRTUAL ART PRODUCTION</tspan></text>
    </g>
  </g>
</svg>
