<svg xmlns="http://www.w3.org/2000/svg" width="28.887" height="23.506" viewBox="0 0 28.887 23.506">
  <g id="Groupe_921" data-name="Groupe 921" transform="translate(-941.246 -456)">
    <path id="_ionicons_svg_logo-twitter" d="M48.987,66.785a11.981,11.981,0,0,1-3.4.937,5.947,5.947,0,0,0,2.608-3.281,11.777,11.777,0,0,1-3.765,1.439,5.925,5.925,0,0,0-10.253,4.052,5.8,5.8,0,0,0,.153,1.353,16.8,16.8,0,0,1-12.218-6.2A5.938,5.938,0,0,0,23.95,73a5.789,5.789,0,0,1-2.693-.741v.073a5.932,5.932,0,0,0,4.756,5.815,5.965,5.965,0,0,1-1.561.208,5.59,5.59,0,0,1-1.114-.11,5.936,5.936,0,0,0,5.54,4.12,11.882,11.882,0,0,1-7.364,2.54,12.015,12.015,0,0,1-1.414-.086,16.566,16.566,0,0,0,9.072,2.681c10.914,0,16.877-9.041,16.877-16.883,0-.257-.006-.514-.018-.765A12.064,12.064,0,0,0,48.987,66.785Z" transform="translate(921.146 392)" fill="#fff"/>
  </g>
</svg>
