<svg xmlns="http://www.w3.org/2000/svg" xmlns:xlink="http://www.w3.org/1999/xlink" width="39.887" height="43.014" viewBox="0 0 39.887 43.014">
  <defs>
    <filter id="Icon_awesome-calendar-day" x="0" y="0" width="39.887" height="43.014" filterUnits="userSpaceOnUse">
      <feOffset dy="3" input="SourceAlpha"/>
      <feGaussianBlur stdDeviation="3" result="blur"/>
      <feFlood flood-opacity="0.161"/>
      <feComposite operator="in" in2="blur"/>
      <feComposite in="SourceGraphic"/>
    </filter>
  </defs>
  <g transform="matrix(1, 0, 0, 1, 0, 0)" filter="url(#Icon_awesome-calendar-day)">
    <path id="Icon_awesome-calendar-day-2" data-name="Icon awesome-calendar-day" d="M0,22.669a2.346,2.346,0,0,0,2.345,2.345h17.2a2.346,2.346,0,0,0,2.345-2.345V9.38H0Zm3.127-9.38a.784.784,0,0,1,.782-.782H8.6a.784.784,0,0,1,.782.782v4.69a.784.784,0,0,1-.782.782H3.908a.784.784,0,0,1-.782-.782ZM19.542,3.127H17.2V.782A.784.784,0,0,0,16.415,0H14.852a.784.784,0,0,0-.782.782V3.127H7.817V.782A.784.784,0,0,0,7.035,0H5.472A.784.784,0,0,0,4.69.782V3.127H2.345A2.346,2.346,0,0,0,0,5.472V7.817H21.887V5.472A2.346,2.346,0,0,0,19.542,3.127Z" transform="translate(9 6)" fill="#444"/>
  </g>
</svg>
