<svg xmlns="http://www.w3.org/2000/svg" xmlns:xlink="http://www.w3.org/1999/xlink" width="43.025" height="43.025" viewBox="0 0 43.025 43.025">
  <defs>
    <filter id="travel" x="0" y="0" width="43.025" height="43.025" filterUnits="userSpaceOnUse">
      <feOffset dy="3" input="SourceAlpha"/>
      <feGaussianBlur stdDeviation="3" result="blur"/>
      <feFlood flood-opacity="0.161"/>
      <feComposite operator="in" in2="blur"/>
      <feComposite in="SourceGraphic"/>
    </filter>
  </defs>
  <g transform="matrix(1, 0, 0, 1, 0, 0)" filter="url(#travel)">
    <path id="travel-2" data-name="travel" d="M21.9,25.025H3.128a3.015,3.015,0,0,1-2.212-.916A3.01,3.01,0,0,1,0,21.9V9.384A3.015,3.015,0,0,1,.916,7.172a3.01,3.01,0,0,1,2.212-.916H6.256V3.91A3.6,3.6,0,0,1,7.5,1.124,3.922,3.922,0,0,1,10.166,0h4.692a3.922,3.922,0,0,1,2.664,1.124A3.6,3.6,0,0,1,18.768,3.91V6.256H21.9a3.128,3.128,0,0,1,3.128,3.128V21.9A3.128,3.128,0,0,1,21.9,25.025ZM7.038,10.948a2.35,2.35,0,0,0-1.662,4.008,2.261,2.261,0,0,0,1.662.684A2.35,2.35,0,0,0,8.7,11.632a2.264,2.264,0,0,0-1.662-.684Zm8.6-6.256a1.543,1.543,0,0,0-1.564-1.564H10.948a1.524,1.524,0,0,0-1.1.452,1.491,1.491,0,0,0-.464,1.112V6.256H15.64ZM20.332,15.64,14.076,17.2,15.64,21.9,21.9,20.332Z" transform="translate(9 6)" fill="#444"/>
  </g>
</svg>
