<svg xmlns="http://www.w3.org/2000/svg" xmlns:xlink="http://www.w3.org/1999/xlink" width="53.563" height="35.782" viewBox="0 0 53.563 35.782">
  <defs>
    <filter id="vr" x="0" y="0" width="53.563" height="35.782" filterUnits="userSpaceOnUse">
      <feOffset dy="3" input="SourceAlpha"/>
      <feGaussianBlur stdDeviation="3" result="blur"/>
      <feFlood flood-opacity="0.161"/>
      <feComposite operator="in" in2="blur"/>
      <feComposite in="SourceGraphic"/>
    </filter>
  </defs>
  <g transform="matrix(1, 0, 0, 1, 0, 0)" filter="url(#vr)">
    <path id="vr-2" data-name="vr" d="M26.116,28.282,22.56,24.725H19l-3.556,3.556H11.891a3.556,3.556,0,0,1-3.556-3.556V14.056A3.556,3.556,0,0,1,11.891,10.5H29.672a3.556,3.556,0,0,1,3.556,3.556V24.725a3.556,3.556,0,0,1-3.556,3.556Zm12.447-5.334a1.778,1.778,0,1,1-3.556,0V15.834s.8-1.778,1.778-1.778a1.778,1.778,0,0,1,1.778,1.778Zm-32.007,0a1.778,1.778,0,1,1-3.556,0V15.834a1.778,1.778,0,1,1,3.556,0Z" transform="translate(6 -4.5)" fill="#444"/>
  </g>
</svg>
